<?xml version="1.0" encoding="UTF-8"?>
<svg id="Layer_2" data-name="Layer 2" xmlns="http://www.w3.org/2000/svg" viewBox="0 0 47.42 47.19">
  <g id="Icon_Set" data-name="Icon Set">
    <g>
      <g>
        <path d="M27.67,38.07c-.15,0-.29-.04-.43-.11-1.62-.9-2.83-2.1-3.59-3.56-.82-1.57-1.02-3.42-.56-5.22,1.33-5.24.18-6.87.04-7.05-.31-.23-.4-.6-.28-.97.12-.37.51-.59.91-.58,2.59.09,4.78,2.63,6,4.41,1.15-5.07-2.72-7.24-2.9-7.34-.35-.19-.54-.6-.44-.99.09-.39.44-.67.84-.68,2.8-.08,5.05.81,6.69,2.63,2.89,3.19,3.09,8.43,2.99,11.04,1.25-1.08,2.27-3.33,2.58-4.23.13-.36.46-.6.85-.59.38,0,.72.25.83.61,2.37,7.31-.44,10.84-3.21,12.51-.42.25-.97.12-1.22-.3-.25-.42-.12-.97.3-1.22,2.69-1.62,3.71-4.32,3.05-8.06-.87,1.56-2.24,3.35-4.05,3.63-.27.04-.55-.05-.75-.24-.2-.19-.3-.47-.26-.75,0-.07.91-7.52-2.43-11.2-.74-.81-1.62-1.38-2.66-1.71,1.44,1.8,2.71,4.86.86,9.35-.13.32-.44.53-.78.55-.35.01-.67-.17-.83-.48-.56-1.08-2.11-3.5-3.88-4.6.28,1.35.3,3.46-.52,6.7-.35,1.38-.2,2.78.41,3.96.6,1.15,1.57,2.1,2.89,2.83.43.24.58.78.34,1.21-.16.29-.46.46-.78.46Z"/>
        <path d="M42.72,42.63h-20.54c-.49,0-.89-.4-.89-.89v-3.58c0-1.03.84-1.87,1.87-1.87h18.58c1.03,0,1.87.84,1.87,1.87v3.58c0,.49-.4.89-.89.89ZM23.07,40.85h18.76v-2.7c0-.05-.04-.09-.09-.09h-18.58c-.05,0-.09.04-.09.09v2.7Z"/>
        <path d="M46.53,47.19h-27.38c-.49,0-.89-.4-.89-.89v-1.64c0-2.1,1.71-3.81,3.81-3.81h21.54c2.1,0,3.81,1.71,3.81,3.81v1.64c0,.49-.4.89-.89.89ZM20.03,45.42h25.61v-.76c0-1.12-.91-2.03-2.03-2.03h-21.54c-1.12,0-2.03.91-2.03,2.03v.76Z"/>
      </g>
      <path d="M21.18,12.93c-.09,0-.18-.01-.27-.04-.47-.15-.73-.65-.58-1.11.39-1.25.06-2.6-.86-3.52l-2.11-2.11c-1.17-1.17-3.03-1.36-4.41-.44l-1.11.74c-.56.37-1.24.47-1.87.28L.73,5.05c-.48-.09-.8-.55-.71-1.03.09-.48.55-.8,1.03-.71l9.29,1.69s.08.02.12.03c.13.04.28.03.4-.05l1.11-.74c2.08-1.39,4.88-1.11,6.65.66l2.11,2.11c1.39,1.39,1.89,3.43,1.3,5.31-.12.38-.47.62-.85.62Z"/>
      <path d="M10.67,22.31c-1.38,0-2.72-.54-3.72-1.55l-2.11-2.11c-1.77-1.77-2.05-4.57-.66-6.65l.74-1.11c.08-.12.1-.26.05-.4-.01-.04-.02-.08-.03-.13l-.28-1.61c-.09-.48.24-.94.72-1.03.48-.09.94.24,1.03.72l.27,1.55c.19.64.09,1.32-.28,1.87l-.74,1.11c-.92,1.38-.74,3.24.44,4.41l2.11,2.11c.92.92,2.26,1.25,3.5.87.47-.14.96.12,1.11.59.14.47-.12.97-.59,1.11-.51.16-1.04.24-1.56.24Z"/>
      <path d="M4.88,5.79c-.42,0-.8-.3-.87-.73l-.71-4.01c-.09-.48.24-.94.72-1.03.48-.09.94.24,1.03.72l.71,4.01c.09.48-.24.94-.72,1.03-.05,0-.1.01-.16.01Z"/>
      <path d="M18.4,21.65c-.86,0-1.66-.33-2.27-.94l-3.29-3.29c-1.25-1.25-1.25-3.29,0-4.54.61-.61,1.41-.94,2.27-.94s1.66.33,2.27.94l3.29,3.29c.61.61.94,1.41.94,2.27,0,.86-.33,1.66-.94,2.27h0c-.61.61-1.41.94-2.27.94ZM15.11,13.72c-.38,0-.74.15-1.02.42-.56.56-.56,1.47,0,2.03l3.29,3.29c.27.27.63.42,1.02.42s.74-.15,1.02-.42h0c.27-.27.42-.63.42-1.02s-.15-.74-.42-1.02l-3.29-3.29c-.27-.27-.63-.42-1.02-.42Z"/>
    </g>
  </g>
</svg>