<?xml version="1.0" encoding="UTF-8"?>
<svg id="Layer_2" data-name="Layer 2" xmlns="http://www.w3.org/2000/svg" viewBox="0 0 192 127.2">
  <g id="Isolation_Mode" data-name="Isolation Mode">
    <g>
      <path d="M121.2,69.6H34.8C15.61,69.6,0,53.99,0,34.8c0-9.29,3.62-18.03,10.19-24.61C16.77,3.62,25.51,0,34.8,0h86.4c19.19,0,34.8,15.61,34.8,34.8,0,9.29-3.62,18.03-10.19,24.61-6.59,6.58-15.33,10.19-24.61,10.19ZM34.8,12c-6.09,0-11.82,2.37-16.13,6.68-4.3,4.31-6.67,10.03-6.67,16.12,0,12.57,10.23,22.8,22.8,22.8h86.4c6.09,0,11.82-2.37,16.13-6.68,4.3-4.31,6.67-10.03,6.67-16.12,0-12.57-10.23-22.8-22.8-22.8H34.8Z"/>
      <path d="M34.8,69.6C15.61,69.6,0,53.99,0,34.8c0-9.29,3.62-18.03,10.19-24.61C16.77,3.62,25.51,0,34.8,0c19.19,0,34.8,15.61,34.8,34.8,0,9.29-3.62,18.03-10.19,24.61-6.59,6.58-15.32,10.19-24.61,10.19ZM34.8,12c-6.09,0-11.82,2.37-16.13,6.68-4.3,4.31-6.67,10.03-6.67,16.12,0,12.57,10.23,22.8,22.8,22.8,6.09,0,11.82-2.37,16.13-6.68,4.3-4.31,6.67-10.03,6.67-16.12,0-12.57-10.23-22.8-22.8-22.8Z"/>
      <path d="M157.2,127.2h-86.4c-19.19,0-34.8-15.61-34.8-34.8,0-9.29,3.62-18.03,10.19-24.61,6.59-6.58,15.32-10.19,24.61-10.19h86.4c19.19,0,34.8,15.61,34.8,34.8,0,9.29-3.62,18.03-10.19,24.61-6.59,6.58-15.32,10.19-24.61,10.19ZM70.8,69.6c-6.09,0-11.82,2.37-16.13,6.68-4.3,4.31-6.67,10.03-6.67,16.12,0,12.57,10.23,22.8,22.8,22.8h86.4c6.09,0,11.82-2.37,16.13-6.68,4.3-4.31,6.67-10.03,6.67-16.12,0-12.57-10.23-22.8-22.8-22.8h-86.4Z"/>
      <path d="M70.8,127.2c-19.19,0-34.8-15.61-34.8-34.8,0-9.29,3.62-18.03,10.19-24.61,6.59-6.58,15.32-10.19,24.61-10.19,19.19,0,34.8,15.61,34.8,34.8,0,9.29-3.62,18.03-10.19,24.61-6.58,6.58-15.32,10.19-24.61,10.19ZM70.8,69.6c-6.09,0-11.82,2.37-16.13,6.68-4.3,4.31-6.67,10.03-6.67,16.12,0,12.57,10.23,22.8,22.8,22.8,6.09,0,11.82-2.37,16.13-6.68,4.3-4.31,6.67-10.03,6.67-16.12,0-12.57-10.23-22.8-22.8-22.8Z"/>
    </g>
  </g>
</svg>