<?xml version="1.0" encoding="UTF-8"?>
<svg id="Layer_2" data-name="Layer 2" xmlns="http://www.w3.org/2000/svg" viewBox="0 0 169.04 190.06">
  <g id="Isolation_Mode" data-name="Isolation Mode">
    <g>
      <path d="M139.71,93.93c-1.94,0-3.7-1.12-4.52-2.87l-7.03-14.91-14.91-7.03c-1.75-.83-2.87-2.59-2.87-4.52s1.12-3.7,2.87-4.52l14.91-7.03,7.03-14.91c.83-1.75,2.59-2.87,4.52-2.87s3.7,1.12,4.52,2.87l7.03,14.91,14.91,7.03c1.75.83,2.87,2.59,2.87,4.52s-1.12,3.7-2.87,4.52l-14.91,7.03-7.03,14.91c-.83,1.75-2.59,2.87-4.52,2.87ZM139.71,77.2l3.27-6.94c.5-1.05,1.34-1.9,2.39-2.39l6.94-3.27-6.94-3.27c-1.05-.5-1.9-1.34-2.39-2.39l-3.27-6.94-3.27,6.94c-.5,1.05-1.34,1.9-2.39,2.39l-6.94,3.27,6.94,3.27"/>
      <path d="M20.5,89.39c-1.94,0-3.7-1.12-4.52-2.87l-4.2-8.91-8.91-4.2c-1.75-.83-2.87-2.59-2.87-4.52s1.12-3.7,2.87-4.52l8.91-4.2,4.2-8.91c.83-1.75,2.59-2.87,4.52-2.87s3.7,1.12,4.52,2.87l4.2,8.91,8.91,4.2c1.75.83,2.87,2.59,2.87,4.52s-1.12,3.7-2.87,4.52l-8.91,4.2-4.2,8.91c-.83,1.75-2.59,2.87-4.52,2.87Z"/>
      <path d="M77.82,190.06c-23.76,0-42.85-9.35-44.06-9.96-1.26-.63-2.19-1.76-2.57-3.12-.38-1.35-.17-2.81.57-4l37.21-59.65-3.1-9.81c-.48-1.52-.21-3.18.73-4.46.94-1.29,2.44-2.04,4.03-2.04h25.06c1.5,0,2.91.67,3.86,1.83.95,1.16,1.33,2.68,1.04,4.14l-3.76,19.03,23.1,50.85c1.05,2.3.21,5.02-1.95,6.34-13.37,8.15-27.44,10.84-40.17,10.84ZM43.34,173.31c11.41,4.35,40,12.69,65.6-.47l-21.87-48.14c-.43-.95-.56-2.01-.35-3.04l2.89-14.64h-12.15l1.74,5.5c.44,1.39.25,2.91-.53,4.15l-35.33,56.63Z"/>
      <path d="M80.11,107.03c-2.76,0-5-2.24-5-5V5c0-2.76,2.24-5,5-5s5,2.24,5,5v97.03c0,2.76-2.24,5-5,5Z"/>
    </g>
  </g>
</svg>