<?xml version="1.0" encoding="UTF-8"?>
<svg id="Layer_2" data-name="Layer 2" xmlns="http://www.w3.org/2000/svg" viewBox="0 0 192 189.71">
  <g id="Designs">
    <g>
      <path d="M145.67,189.71H46.33c-13.14,0-23.83-10.69-23.83-23.83v-79.67c0-3.31,2.69-6,6-6h135c3.31,0,6,2.69,6,6v79.67c0,13.14-10.69,23.83-23.83,23.83ZM34.5,92.21v73.67c0,6.52,5.31,11.83,11.83,11.83h99.34c6.52,0,11.83-5.31,11.83-11.83v-73.67H34.5Z"/>
      <path d="M6,114.71c-1.54,0-3.07-.59-4.24-1.76-2.34-2.34-2.34-6.14,0-8.48l22.5-22.5c2.34-2.34,6.14-2.34,8.48,0,2.34,2.34,2.34,6.14,0,8.48l-22.5,22.5c-1.17,1.17-2.71,1.76-4.24,1.76Z"/>
      <path d="M186,114.71c-1.54,0-3.07-.59-4.24-1.76l-22.5-22.5c-2.34-2.34-2.34-6.14,0-8.48,2.34-2.34,6.14-2.34,8.48,0l22.5,22.5c2.34,2.34,2.34,6.14,0,8.48-1.17,1.17-2.71,1.76-4.24,1.76Z"/>
      <path d="M141,167.21h-30c-3.31,0-6-2.69-6-6v-15c0-3.31,2.69-6,6-6h30c3.31,0,6,2.69,6,6v15c0,3.31-2.69,6-6,6ZM117,155.21h18v-3h-18v3Z"/>
      <path d="M87,0h18c3.31,0,6,2.69,6,6v39h10.46c2.43,0,4.61,1.46,5.54,3.7s.42,4.82-1.3,6.54l-25.46,25.46c-1.12,1.13-2.65,1.76-4.24,1.76s-3.12-.63-4.24-1.76l-25.46-25.46c-1.72-1.72-2.23-4.3-1.3-6.54s3.12-3.7,5.54-3.7h10.46V6c0-3.31,2.69-6,6-6ZM99,12h-6v39c0,3.31-2.69,6-6,6h-1.97l10.97,10.97,10.97-10.97h-1.97c-3.31,0-6-2.69-6-6V12Z"/>
    </g>
  </g>
</svg>