<?xml version="1.0" encoding="UTF-8"?>
<svg id="Layer_2" data-name="Layer 2" xmlns="http://www.w3.org/2000/svg" viewBox="0 0 182.89 129">
  <g id="Isolation_Mode" data-name="Isolation Mode">
    <g>
      <path d="M167.3,129h-45.04c-5.18,0-10-2.56-12.9-6.84-2.9-4.28-3.49-9.71-1.58-14.52l5.69-14.25c2.38-5.96,8.06-9.81,14.48-9.81h33.67c6.42,0,12.1,3.85,14.48,9.81l5.69,14.25c1.92,4.81,1.33,10.24-1.58,14.52-2.9,4.28-7.73,6.84-12.9,6.84ZM127.94,95.57c-1.48,0-2.79.89-3.33,2.26l-5.69,14.25c-.64,1.59.04,2.87.36,3.34s1.25,1.57,2.97,1.57h45.04c1.72,0,2.65-1.1,2.97-1.57s1-1.75.36-3.34l-5.69-14.25c-.55-1.37-1.85-2.26-3.33-2.26h-33.67Z"/>
      <path d="M140.63,87.21h-45.04c-5.18,0-10-2.56-12.9-6.84-2.9-4.28-3.49-9.71-1.58-14.52l5.69-14.25c2.38-5.96,8.06-9.81,14.48-9.81h33.67c6.42,0,12.1,3.85,14.48,9.81l5.69,14.25c1.92,4.81,1.33,10.24-1.58,14.52-2.9,4.28-7.73,6.84-12.9,6.84ZM101.27,53.79c-1.48,0-2.78.89-3.33,2.26l-5.69,14.25c-.64,1.59.04,2.87.36,3.34.32.47,1.25,1.57,2.97,1.57h45.04c1.72,0,2.65-1.1,2.97-1.57s1-1.75.36-3.34l-5.69-14.25c-.55-1.37-1.85-2.26-3.33-2.26h-33.67Z"/>
      <path d="M60.63,87.21H15.59c-5.18,0-10-2.56-12.9-6.84-2.9-4.28-3.49-9.71-1.58-14.52l5.69-14.25c2.38-5.96,8.06-9.81,14.48-9.81h33.67c6.42,0,12.1,3.85,14.48,9.81l5.69,14.25c1.92,4.81,1.33,10.24-1.58,14.52-2.9,4.28-7.73,6.84-12.9,6.84ZM21.27,53.79c-1.48,0-2.78.89-3.33,2.26l-5.69,14.25c-.64,1.59.04,2.87.36,3.34.32.47,1.25,1.57,2.97,1.57h45.04c1.72,0,2.65-1.1,2.97-1.57s1-1.75.36-3.34l-5.69-14.25c-.55-1.37-1.85-2.26-3.33-2.26H21.27Z"/>
      <path d="M100.63,45.43h-45.04c-5.18,0-10-2.56-12.9-6.84-2.9-4.28-3.49-9.71-1.58-14.52l5.69-14.25C49.17,3.85,54.86,0,61.27,0h33.67c6.42,0,12.1,3.85,14.48,9.81l5.69,14.25c1.92,4.81,1.33,10.24-1.58,14.52s-7.73,6.84-12.9,6.84ZM61.27,12c-1.48,0-2.78.89-3.33,2.26l-5.69,14.25c-.64,1.59.04,2.87.36,3.34.32.47,1.25,1.57,2.97,1.57h45.04c1.72,0,2.65-1.1,2.97-1.57s1-1.75.36-3.34l-5.69-14.25c-.55-1.37-1.85-2.26-3.33-2.26h-33.67Z"/>
      <path d="M86.75,129h-45.04c-5.18,0-10-2.56-12.9-6.84-2.9-4.28-3.49-9.71-1.58-14.52l5.69-14.25c2.38-5.96,8.06-9.81,14.48-9.81h33.67c6.42,0,12.1,3.85,14.48,9.81l5.69,14.25c1.92,4.81,1.33,10.24-1.58,14.52s-7.73,6.84-12.9,6.84ZM47.39,95.57c-1.48,0-2.78.89-3.33,2.26l-5.69,14.25c-.64,1.59.04,2.87.36,3.34.32.47,1.25,1.57,2.97,1.57h45.04c1.72,0,2.65-1.1,2.97-1.57s1-1.75.36-3.34l-5.69-14.25c-.55-1.37-1.85-2.26-3.33-2.26h-33.67Z"/>
    </g>
  </g>
</svg>