<?xml version="1.0" encoding="UTF-8"?>
<svg id="Layer_2" data-name="Layer 2" xmlns="http://www.w3.org/2000/svg" viewBox="0 0 184.44 120.19">
  <g id="Isolation_Mode" data-name="Isolation Mode">
    <g>
      <path d="M160.7,120.19c-.28,0-.55,0-.83-.02l-126.13-5.05c-4.48-.18-8.71-1.76-12.21-4.56l-13.65-10.92c-8.52-6.82-10.39-18.81-4.33-27.9l14.41-21.62c.2-.31.39-.63.55-.96l7.45-14.89c2.98-5.96,8.68-10.17,15.25-11.26l21.57-3.59c1.84-.31,3.51-1.16,4.82-2.48l10.81-10.81c6.87-6.87,17.44-8.11,25.72-3.02l56.03,34.48c6.13,3.77,9.94,10.59,9.94,17.79v9.22c0,1.91.63,3.8,1.78,5.33l8.38,11.17c4.78,6.37,5.53,14.75,1.97,21.87l-2.83,5.67c-3.54,7.08-10.81,11.55-18.68,11.55ZM34.22,103.14l126.13,5.05c3.48.13,6.74-1.79,8.3-4.91l2.83-5.67c1.52-3.03,1.19-6.6-.84-9.31l-8.38-11.17c-2.69-3.59-4.18-8.04-4.18-12.53v-9.22c0-3.06-1.62-5.96-4.23-7.57L97.84,13.34c-3.52-2.17-8.02-1.64-10.94,1.28l-10.81,10.81c-3.1,3.1-7.02,5.11-11.34,5.83l-21.57,3.59c-2.8.47-5.22,2.26-6.49,4.79l-7.45,14.89c-.39.77-.82,1.53-1.3,2.25l-14.41,21.62c-2.58,3.86-1.78,8.97,1.84,11.87l13.65,10.92c1.49,1.19,3.29,1.86,5.2,1.94Z"/>
      <path d="M45.96,116.07c-1.14,0-2.3-.33-3.32-1.01-2.76-1.84-3.5-5.56-1.66-8.32l17.79-26.69,17.83-35.67c1.34-2.67,4.43-3.95,7.26-3.01l27,9c3.14,1.05,4.84,4.45,3.79,7.59-1.05,3.14-4.44,4.84-7.59,3.79l-22.06-7.35-15.67,31.35c-.11.22-.24.44-.37.64l-18,27c-1.16,1.73-3.06,2.67-5,2.67Z"/>
      <path d="M117.96,98.07c-1.14,0-2.3-.33-3.32-1.01-2.76-1.84-3.5-5.56-1.66-8.32l18-27c1.84-2.76,5.56-3.5,8.32-1.66,2.76,1.84,3.5,5.56,1.66,8.32l-18,27c-1.16,1.73-3.06,2.67-5,2.67Z"/>
    </g>
  </g>
</svg>