<?xml version="1.0" encoding="UTF-8"?>
<svg id="Layer_2" data-name="Layer 2" xmlns="http://www.w3.org/2000/svg" viewBox="0 0 192 174">
  <g id="Designs">
    <g>
      <path d="M6,174c-3.31,0-6-2.69-6-6V15c0-3.31,2.69-6,6-6s6,2.69,6,6v153c0,3.31-2.69,6-6,6Z"/>
      <path d="M186,174c-3.31,0-6-2.69-6-6V15c0-3.31,2.69-6,6-6s6,2.69,6,6v153c0,3.31-2.69,6-6,6Z"/>
      <path d="M186,57H6c-3.31,0-6-2.69-6-6s2.69-6,6-6h180c3.31,0,6,2.69,6,6s-2.69,6-6,6Z"/>
      <path d="M186,147H6c-3.31,0-6-2.69-6-6s2.69-6,6-6h180c3.31,0,6,2.69,6,6s-2.69,6-6,6Z"/>
      <path d="M87,57H24c-3.31,0-6-2.69-6-6V11.62c0-6.41,5.21-11.62,11.62-11.62h51.76c6.41,0,11.62,5.21,11.62,11.62v39.38c0,3.31-2.69,6-6,6ZM30,45h51V12H30v33Z"/>
      <path d="M60,30h-9c-3.31,0-6-2.69-6-6s2.69-6,6-6h9c3.31,0,6,2.69,6,6s-2.69,6-6,6Z"/>
      <path d="M168,57h-63c-3.31,0-6-2.69-6-6V11.62c0-6.41,5.21-11.62,11.62-11.62h51.76c6.41,0,11.62,5.21,11.62,11.62v39.38c0,3.31-2.69,6-6,6ZM111,45h51V12h-51v33Z"/>
      <path d="M141,30h-9c-3.31,0-6-2.69-6-6s2.69-6,6-6h9c3.31,0,6,2.69,6,6s-2.69,6-6,6Z"/>
      <path d="M87,147H24c-3.31,0-6-2.69-6-6v-39.38c0-6.41,5.21-11.62,11.62-11.62h51.76c6.41,0,11.62,5.21,11.62,11.62v39.38c0,3.31-2.69,6-6,6ZM30,135h51v-33H30v33Z"/>
      <path d="M60,120h-9c-3.31,0-6-2.69-6-6s2.69-6,6-6h9c3.31,0,6,2.69,6,6s-2.69,6-6,6Z"/>
      <path d="M168,147h-63c-3.31,0-6-2.69-6-6v-39.38c0-6.41,5.21-11.62,11.62-11.62h51.76c6.41,0,11.62,5.21,11.62,11.62v39.38c0,3.31-2.69,6-6,6ZM111,135h51v-33h-51v33Z"/>
      <path d="M141,120h-9c-3.31,0-6-2.69-6-6s2.69-6,6-6h9c3.31,0,6,2.69,6,6s-2.69,6-6,6Z"/>
    </g>
  </g>
</svg>