<?xml version="1.0" encoding="UTF-8"?>
<svg id="Layer_2" data-name="Layer 2" xmlns="http://www.w3.org/2000/svg" viewBox="0 0 47.31 47.41">
  <g id="Icon_Set" data-name="Icon Set">
    <g>
      <g>
        <path d="M23.66,37.55h-15.18c-.28,0-.55-.13-.71-.36s-.22-.52-.13-.79l3.04-9.87c.11-.37.46-.63.85-.63h9.11c.39,0,.73.25.85.63l3.04,9.87c.08.27.03.56-.13.79-.17.23-.43.36-.71.36ZM9.68,35.77h12.78l-2.49-8.09h-7.8l-2.49,8.09Z"/>
        <path d="M38.84,37.55h-15.18c-.28,0-.55-.13-.71-.36-.17-.23-.22-.52-.13-.79l3.04-9.87c.11-.37.46-.63.85-.63h9.11c.39,0,.73.25.85.63l3.04,9.87c.08.27.03.56-.13.79s-.43.36-.71.36ZM24.86,35.77h12.78l-2.49-8.09h-7.8l-2.49,8.09Z"/>
      </g>
      <path d="M31.25,27.68h-15.18c-.28,0-.55-.13-.71-.36-.17-.23-.22-.52-.13-.79l3.04-9.87c.11-.37.46-.63.85-.63h9.11c.39,0,.73.25.85.63l3.04,9.87c.08.27.03.56-.13.79-.17.23-.43.36-.71.36ZM17.27,25.91h12.78l-2.49-8.09h-7.8l-2.49,8.09Z"/>
      <g>
        <path d="M16.07,47.41H.89c-.28,0-.55-.13-.71-.36s-.22-.52-.13-.79l3.04-9.87c.11-.37.46-.63.85-.63h9.11c.39,0,.73.25.85.63l3.04,9.87c.08.27.03.56-.13.79-.17.23-.43.36-.71.36ZM2.09,45.64h12.78l-2.49-8.09h-7.8l-2.49,8.09Z"/>
        <path d="M31.25,47.41h-15.18c-.28,0-.55-.13-.71-.36-.17-.23-.22-.52-.13-.79l3.04-9.87c.11-.37.46-.63.85-.63h9.11c.39,0,.73.25.85.63l3.04,9.87c.08.27.03.56-.13.79-.17.23-.43.36-.71.36ZM17.27,45.64h12.78l-2.49-8.09h-7.8l-2.49,8.09Z"/>
        <path d="M46.42,47.41h-15.18c-.28,0-.55-.13-.71-.36-.17-.23-.22-.52-.13-.79l3.04-9.87c.11-.37.46-.63.85-.63h9.11c.39,0,.73.25.85.63l3.04,9.87c.08.27.03.56-.13.79-.17.23-.43.36-.71.36ZM32.45,45.64h12.78l-2.49-8.09h-7.8l-2.49,8.09Z"/>
      </g>
      <path d="M27.39,13.26c-.14,0-.28-.03-.41-.1l-3.32-1.75-3.32,1.75c-.3.16-.66.13-.93-.07-.27-.2-.41-.53-.35-.87l.63-3.7-2.69-2.62c-.24-.24-.33-.59-.22-.91.1-.32.38-.56.72-.6l3.71-.54,1.66-3.36c.15-.3.46-.49.8-.49s.65.19.8.49l1.66,3.36,3.71.54c.33.05.61.28.72.6.1.32.02.67-.22.91l-2.69,2.62.63,3.7c.06.33-.08.67-.35.87-.15.11-.34.17-.52.17ZM23.66,9.52c.14,0,.28.03.41.1l2.14,1.13-.41-2.38c-.05-.29.05-.58.26-.79l1.73-1.69-2.39-.35c-.29-.04-.54-.22-.67-.49l-1.07-2.17-1.07,2.17c-.13.26-.38.44-.67.49l-2.39.35,1.73,1.69c.21.2.3.5.26.79l-.41,2.38,2.14-1.13c.13-.07.27-.1.41-.1Z"/>
      <path d="M5.44,24.65c-.32,0-.62-.18-.78-.46l-1.49-2.72-2.72-1.49C.18,19.83,0,19.53,0,19.21s.18-.62.46-.78l2.72-1.49,1.49-2.72c.16-.28.45-.46.78-.46s.62.18.78.46l1.49,2.72,2.72,1.49c.28.16.46.45.46.78s-.18.62-.46.78l-2.72,1.49-1.49,2.72c-.16.28-.45.46-.78.46ZM2.74,19.21l1.52.83c.15.08.27.2.35.35l.83,1.52.83-1.52c.08-.15.2-.27.35-.35l1.52-.83-1.52-.83c-.15-.08-.27-.2-.35-.35l-.83-1.52-.83,1.52c-.08.15-.2.27-.35.35l-1.52.83Z"/>
      <path d="M41.87,24.65c-.32,0-.62-.18-.78-.46l-1.49-2.72-2.72-1.49c-.28-.16-.46-.45-.46-.78s.18-.62.46-.78l2.72-1.49,1.49-2.72c.16-.28.45-.46.78-.46s.62.18.78.46l1.49,2.72,2.72,1.49c.28.16.46.45.46.78s-.18.62-.46.78l-2.72,1.49-1.49,2.72c-.16.28-.45.46-.78.46ZM39.17,19.21l1.52.83c.15.08.27.2.35.35l.83,1.52.83-1.52c.08-.15.2-.27.35-.35l1.52-.83-1.52-.83c-.15-.08-.27-.2-.35-.35l-.83-1.52-.83,1.52c-.08.15-.2.27-.35.35l-1.52.83Z"/>
    </g>
  </g>
</svg>