<?xml version="1.0" encoding="iso-8859-1"?>
<!-- Generator: Adobe Illustrator 30.1.0, SVG Export Plug-In . SVG Version: 9.03 Build 0)  -->
<svg version="1.1" id="Layer_1" xmlns="http://www.w3.org/2000/svg" xmlns:xlink="http://www.w3.org/1999/xlink" x="0px" y="0px"
	 viewBox="0 0 929.248 348.697" style="enable-background:new 0 0 929.248 348.697;" xml:space="preserve">
<path d="M907.252,8.874c6.46-6.23,18.05,1.67,16.56,9.9c-0.21,2.22-1.56,4.1-3.19,5.51c-45.3,42.35-90.09,85.24-135.04,127.94
	c6.52,1.83,13.57,2.35,19.67,5.36c-7.48,4.6-15.24,8.73-22.83,13.15c0.48,8.67,2.04,17.27,2.15,25.97c-1.47-0.6-2.8-1.42-3.91-2.52
	c-5.22-4.91-10.58-9.67-15.72-14.65c-8.32,2.79-16.01,7.46-24.46,9.7c2.63-8.19,6.74-15.81,10.09-23.71
	c-3.57-4.75-7.58-9.14-11.44-13.65c-1.81-2.15-3.96-4.12-4.93-6.81c8.68,0.48,17.3,1.8,25.97,2.47c4.28-7.45,8.25-15.11,13.24-22.12
	c2.53,6.42,3.14,13.42,5.07,20.03c8.85-10.25,18.64-19.62,27.72-29.65c21.67-22.66,43.07-45.56,64.51-68.43
	C883.122,34.754,894.812,21.454,907.252,8.874z"/>
<path d="M817.692,43.444c3.53-3.03,2.65-8.37,5.32-11.94c1.35,3.5,1.76,7.37,3.7,10.64c2.58,3.78,8.22,2.17,11.2,5.32
	c-3.43,1.28-7.3,1.57-10.36,3.69c-3.03,3.09-2.34,8.11-5.08,11.38c-1.33-3.44-1.82-7.23-3.7-10.43c-2.59-3.31-7.82-2.16-10.54-5.28
	C811.332,45.554,814.812,45.214,817.692,43.444z"/>
<path d="M724.422,63.814c8.81-21.44,41.1-26.21,56.69-9.7c-10.62-1.74-21.57-4.15-32.26-1.52
	C739.892,54.244,731.712,58.484,724.422,63.814z"/>
<path d="M258.202,63.194c15.07-3.2,31.98-0.69,44.07,9.34c7.31,5.68,10.86,14.87,11.67,23.87c-5.24,0.03-10.48,0.02-15.72,0.01
	c-1.08-6.78-5.3-13.18-11.53-16.23c-8.02-3.94-17.4-4.52-26.05-2.61c-6.06,1.53-12.13,4.92-15.04,10.7
	c-2.91,5.86-2.28,13.75,2.56,18.43c4.05,4.01,9.71,5.67,15.01,7.36c14.49,4.3,30.7,5.81,42.6,16.04
	c13.26,11.39,12.4,33.76,0.67,45.92c-8.72,9.27-21.98,12.3-34.26,12.75c-11.98,0.03-24.69-2.17-34.38-9.69
	c-8.18-6.13-13.36-16.03-13.73-26.24c5.51-0.06,11.02-0.01,16.53-0.02c0.84,7.85,6.12,15.03,13.44,18.05
	c10.63,4.45,23.29,4.69,33.79-0.31c7.08-3.3,11.72-11.05,10.95-18.88c0.09-6.19-4.38-11.43-9.79-13.89
	c-13.49-5.99-28.47-7.47-42.06-13.18c-8.64-3.61-16.43-10.64-18.6-20.04c-1.51-7.61-1.14-15.97,2.7-22.87
	C236.532,71.724,247.152,65.224,258.202,63.194z"/>
<path d="M407.962,66.664c17.24-7.35,38.3-6.32,54.09,4.11c11.1,6.8,17.76,19.16,20.18,31.67c-5.51,0.08-11.02,0.01-16.53,0.06
	c-2.35-8.58-7.66-16.56-15.42-21.11c-8.54-4.83-18.86-5.56-28.33-3.66c-11.67,2.55-21.09,11.68-25.51,22.57
	c-5.38,13.46-6,28.65-2.47,42.66c1.89,8.18,6.17,15.82,12.39,21.5c13.08,12.14,35.21,12.91,48.97,1.53
	c8.04-6.89,11.38-17.72,11.62-28.02c-10.74,0.06-21.48-0.02-32.22,0.04c0.02-4.62,0.01-9.24,0.02-13.85
	c16.04-0.03,32.08,0,48.12-0.03c-0.06,11.29,0.61,22.94-3.37,33.72c-4.32,13.49-15.66,24.39-29.26,28.27
	c-14.28,4.26-30.16,3.33-43.77-2.8c-13.02-6.05-22.7-18.08-26.95-31.68c-4.84-15.45-5.09-32.24-1.32-47.94
	C381.942,87.754,392.812,73.344,407.962,66.664z"/>
<path d="M749.042,62.964c10.8-2.56,22.14-1.06,32.61,2.24c14.73,4.83,27.93,13.24,40.53,22.09c-2.27,3.05-4.95,5.76-7.43,8.62
	c-12.81-8.54-26.74-15.74-41.72-19.59c-9.69-2.4-20.6-2.4-29.37,2.94c-6.97,3.69-11.75,11.46-11.17,19.43
	c0.57,9.26,10.41,17.02,19.56,14.58c6.89-1.77,10.6-11.51,5.39-16.86c-2.75-3.27-7.27-2.51-10.92-1.71
	c2.53-3.84,7.86-5.67,12.1-3.61c7.18,3.2,10.49,12.36,7.74,19.59c-2.71,8.35-11.66,13.58-20.2,13.38
	c-11.65-0.06-22.57-8.79-25.26-20.1c-2.23-9.63-0.04-20.4,6.4-28C732.872,69.414,740.602,64.714,749.042,62.964z"/>
<g>
	<path d="M5.582,64.014c14.84-0.06,29.68-0.06,44.52-0.03c14.62,0.11,29.65,5.2,40.01,15.79c10.88,11.42,15.45,27.54,15.86,43
		c0.57,15.76-3.1,32.29-13.03,44.85c-5.11,6.4-11.98,11.27-19.42,14.63c-9.57,4.09-20.16,4.54-30.42,4.56
		c-12.48-0.07-24.95-0.02-37.43,0C5.622,145.874,5.682,104.944,5.582,64.014z M21.642,78.254c0.05,31.36,0.01,62.72,0.07,94.07
		c10.8-0.16,21.65,0.44,32.42-0.59c10.33-0.95,20.45-5.94,26.55-14.48c8.91-12.09,10.47-28.02,8.4-42.51
		c-1.52-11.2-6.65-22.43-16.01-29.17c-7.09-5.45-16.23-7.13-24.97-7.35C39.282,78.214,30.462,78.214,21.642,78.254z"/>
</g>
<path d="M128.142,64.004c26.07-0.1,52.13,0.05,78.2-0.09c0.01,4.76-0.01,9.53,0.02,14.3c-20.69,0-41.38,0.02-62.08,0.01
	c0.01,13.03,0.04,26.07,0.02,39.1c19.06-0.05,38.13,0.03,57.2-0.05c0,4.71,0.01,9.42,0.03,14.13c-19.08,0-38.15-0.03-57.23,0.02
	c-0.04,13.66,0.02,27.31-0.02,40.97c20.99,0,41.98,0.02,62.97,0.01c-0.02,4.74-0.03,9.48-0.01,14.22
	c-26.41,0.16-52.82,0.16-79.23-0.02C127.992,145.734,128.022,104.864,128.142,64.004z"/>
<path d="M337.002,63.944c5.45,0.03,10.9,0.01,16.35,0.01c-0.1,40.89-0.06,81.79-0.03,122.68c-5.44,0.12-10.87,0.04-16.31-0.03
	C337.032,145.724,336.912,104.834,337.002,63.944z"/>
<path d="M505.032,63.994c5.25-0.06,10.51-0.06,15.78-0.02c21.79,31.94,43.75,63.78,65.85,95.5c0.17-31.84,0.03-63.68,0.08-95.52
	c5.32-0.03,10.64-0.02,15.97-0.03c-0.02,40.92-0.08,81.84-0.01,122.76c-4.91,0.18-9.83,0.24-14.73,0.05
	c-1.46,0.2-1.97-1.44-2.75-2.29c-21.55-30.88-42.51-62.17-64.18-92.95c-0.27,31.77,0.05,63.55-0.12,95.32
	c-5.25,0.07-10.48-0.24-15.71-0.14C505.252,145.774,505.232,104.884,505.032,63.994z"/>
<path d="M893.252,92.804c3.3-1.88,7.71,1.24,7.17,4.97c-0.05,3.51-4.32,5.96-7.3,4C889.652,99.994,889.522,94.364,893.252,92.804z"
	/>
<path d="M785.362,98.024c3.52-1.99,8.18,1.92,6.6,5.71c-1,3.68-6.87,4-8.52,0.7C782.112,102.284,783.022,99.044,785.362,98.024z"/>
<path d="M862.712,97.294c9.66,3.13,18.31,10.43,21.35,20.34c5.06,14.21-0.89,31.25-13.46,39.49c-12.6,8.81-30.19,8.02-43.02,0.1
	c-5.03-3.21-10.34-6.72-13.07-12.23c11.44,5.83,24.54,10.03,37.47,7.58c9.33-1.61,17.76-8.09,21.25-16.96c3-8.01,2.9-17.34-1.1-25
	C869.702,105.694,865.672,101.854,862.712,97.294z"/>
<path d="M838.262,112.894c2.04-1.9,4.09-3.78,6.12-5.69c5.4,5.26,10.8,11.06,13.15,18.39c1.4,4.24,1.18,9.4-1.76,12.96
	c-2.43,2.49-5.95,3.38-9.18,4.31c4.17-2.87,7.33-7.94,5.66-13.13C849.692,122.664,843.202,118.214,838.262,112.894z"/>
<path d="M703.082,126.754c1.34-2.75,1.92-5.8,3.13-8.6c1.57,2.84,1.62,6.34,3.46,9.03c2.73,1.51,5.86,2.09,8.69,3.43
	c-2.75,1.11-5.73,1.67-8.35,3.09c-2.3,2.48-2.36,6.2-3.84,9.15c-1.01-2.75-1.56-5.66-2.81-8.31c-2.32-2.31-5.91-2.53-8.76-3.92
	C697.322,129.164,700.932,129.144,703.082,126.754z"/>
<path d="M892.372,146.224c0.5-1.04,1-2.23,2.24-2.56c3.88,16.94-14.29,32.74-30.6,28.3c3.06-1.87,6.49-3.04,9.54-4.94
	C881.632,162.084,888.302,154.794,892.372,146.224z"/>
<path d="M684.612,172.284c4.88-3.88,3.72-11.19,7.44-15.8c2.14,4.77,2.3,10.43,5.52,14.68c4.33,3.66,10.44,3.83,15.5,6.11
	c-4.85,3.37-11.86,2.91-15.8,7.67c-2.59,4.36-3.02,9.63-5.3,14.15c-2.93-4.36-2.81-10.07-5.76-14.4c-3.8-4.74-10.89-3.78-15.35-7.42
	C675.342,175.334,680.362,174.724,684.612,172.284z"/>
<path d="M821.132,179.574c1.27-2.69,1.85-5.64,2.98-8.39c1.22,2.77,1.72,5.81,2.99,8.57c2.67,2.03,6.32,1.93,9.08,3.85
	c-3.27,1.74-8.98,1.13-9.76,5.7c-0.66,2.21-1.26,4.43-2.01,6.61c-1.74-2.79-1.72-6.29-3.41-9.07c-2.33-2.03-5.95-1.62-8.17-3.82
	C815.592,181.964,819.072,181.934,821.132,179.574z"/>
<path d="M717.702,208.254c65.18,0.03,130.36,0.01,195.55,0.03c0.02,5.5,0.2,11.01,0.03,16.52c-0.15,3.11-3.17,5.21-6.06,5.49
	c-14.28,2.01-28.62,4.59-42.04,10.03c-11.77,5.08-22.73,12.62-30.38,23.03c-5.33,7.28-8.2,16.47-7.3,25.5
	c0.74,8.75,5.69,16.62,11.8,22.69c7.26,6.98,16.74,10.88,26.18,13.91c0.09,7.21,0.06,14.42,0.02,21.64
	c-13.15-0.07-26.31,0.03-39.46-0.05c-2.47,0.05-4.19-2.01-5.94-3.43c-7-6.77-16.33-10.75-25.81-12.55
	c-12.53-2.19-25.61,1.68-35.88,8.94c-4.26,2.73-7.46,8.33-13.28,7.11c-12.1-0.05-24.2,0.01-36.29-0.03
	c-0.08-7.26-0.07-14.53,0.03-21.79c12.52-3.67,25.47-9.66,32.54-21.19c4.35-6.3,6.01-15.04,2.25-21.99
	c-4.67-7.74-13.87-11.11-22.46-11.96c-21.93-1.17-43.85-5.69-63.92-14.75c-12.07-5.68-23.92-13.19-31.4-24.51
	c-2-3.3-4.34-6.67-4.46-10.66c32.08-0.08,64.15-0.06,96.23,0.01C717.672,216.244,717.672,212.244,717.702,208.254z"/>
<g>
	<path d="M155.252,221.894c16.01-2.48,33.03,0.94,46.45,10.16c13.48,8.84,21.8,24,24.59,39.63c2.49,14.84,1.14,30.66-5.77,44.18
		c-7.96,16.57-24.31,28.52-42.35,31.69c-15.87,2.79-33.06,0.61-46.87-8.05c-12.74-7.52-21.99-20.41-25.66-34.68
		c-4.4-16.66-3.43-34.97,3.95-50.64C118.002,236.504,135.952,224.304,155.252,221.894z M158.602,246.464
		c-10.41,1.58-19.01,9.28-22.99,18.84c-4.57,10.1-4.93,21.8-2.33,32.47c1.94,7.57,5.93,14.81,12.18,19.66
		c7.48,6.02,17.77,7.97,27.09,6.04c9.17-1.99,17.13-8.46,21.2-16.87c4.21-8.58,5.13-18.44,4.25-27.85
		c-0.87-10.38-5.51-20.79-13.89-27.23C176.882,246.144,167.312,244.924,158.602,246.464z"/>
</g>
<path d="M383.182,235.854c11.37-9.55,26.27-14.06,40.94-14.66c14.89-0.39,30.04,4.41,41.48,14.05c6.22,5.3,10.52,12.39,13.96,19.72
	c-8.96,3.17-17.89,6.44-26.79,9.79c-2.6-7.83-8.74-14.66-16.72-17.15c-8.61-2.85-18.46-2.4-26.53,1.88
	c-6.71,3.32-11.77,9.44-14.47,16.36c-4.32,10.89-4.66,23.27-1.37,34.49c1.83,6.28,5.36,12.09,10.4,16.31
	c9.84,8.5,24.73,9.83,36.43,4.62c7.76-3.46,12.69-11.14,14.7-19.17c-9.92-0.07-19.84-0.02-29.76-0.03
	c0.01-7.39-0.01-14.77-0.02-22.16c19.19-0.04,38.39-0.01,57.58-0.02c0.1,10.82,0.32,21.93-3.32,32.28
	c-4.17,13.26-13.97,24.62-26.53,30.58c-12.66,5.98-27.2,7.11-40.91,4.91c-16.62-2.71-32-12.84-40.5-27.46
	c-8.16-13.56-10.29-30.05-8.29-45.56C365.202,259.964,371.772,245.494,383.182,235.854z"/>
<path d="M2.312,223.534c29.8-0.12,59.61,0,89.42-0.06c-0.04,7.71-0.04,15.42-0.02,23.14c-20.41,0.02-40.83-0.04-61.24,0.02
	c0.02,9.66,0.08,19.33-0.03,28.99c18.14-0.03,36.28,0,54.41-0.02c0.06,7.67,0.03,15.34,0.04,23.02
	c-18.15,0.01-36.31,0.01-54.47,0.02c0.15,15.93,0.1,31.87,0.04,47.81c-9.35,0.08-18.71,0-28.06,0.05
	C2.332,305.514,2.452,264.524,2.312,223.534z"/>
<g>
	<path d="M246.212,223.434c16.96,0.05,33.92,0,50.89,0.02c7.36,0.02,14.89-0.33,22.05,1.74c9.96,2.69,19.4,8.93,24.11,18.35
		c7.03,13.93,6.08,32.16-3.86,44.48c-3.79,4.79-9.02,8.24-14.67,10.44c8.54,16.08,17.3,32.05,26.08,48.02
		c-10.57,0.06-21.13,0.06-31.7,0.03c-7.39-14.73-15.55-29.07-22.49-44.01c-7.55,0.13-15.1,0.04-22.64,0.08
		c0,14.66,0.01,29.31,0.01,43.97c-9.27-0.03-18.54-0.03-27.81-0.04C246.192,305.494,246.132,264.464,246.212,223.434z
		 M273.982,246.554c0.01,11.01,0.05,22.02-0.03,33.03c7.36,0.48,14.74,0.11,22.12,0.25c6.32,0.08,13.51-0.07,18.42-4.66
		c6.28-6.68,6.1-18.75-1.01-24.78c-4.14-2.9-9.35-3.83-14.32-3.84C290.772,246.554,282.382,246.534,273.982,246.554z"/>
</g>
<path d="M502.222,223.504c30.38-0.04,60.76-0.02,91.15-0.01c0.03,7.7,0.03,15.4,0.04,23.1c-21.06-0.01-42.12,0.01-63.19,0
	c-0.01,8.64,0.01,17.27-0.02,25.91c18.59-0.02,37.17,0.06,55.76-0.02c-0.04,7.65-0.01,15.31-0.01,22.96
	c-18.59-0.05-37.17,0-55.76-0.05c0.06,9.3,0.04,18.61,0.03,27.91c21.47-0.02,42.94-0.01,64.41-0.01
	c-0.02,7.74-0.05,15.48,0.01,23.22c-30.81-0.03-61.62-0.02-92.43-0.02C502.222,305.494,502.182,264.504,502.222,223.504z"/>
</svg>
