<?xml version="1.0" encoding="UTF-8"?>
<svg id="Layer_2" data-name="Layer 2" xmlns="http://www.w3.org/2000/svg" viewBox="0 0 183 169.64">
  <g id="Designs">
    <g>
      <path d="M52.64,169.64H6c-3.31,0-6-2.69-6-6v-36.27c0-3.31,2.69-6,6-6h46.64c3.31,0,6,2.69,6,6v36.27c0,3.31-2.69,6-6,6ZM12,157.64h34.64v-24.27H12v24.27Z"/>
      <rect x="15.54" y="121.36" width="27.55" height="22.36" rx="6" ry="6"/>
      <path d="M114.82,169.64h-46.64c-3.31,0-6-2.69-6-6v-36.27c0-3.31,2.69-6,6-6h46.64c3.31,0,6,2.69,6,6v36.27c0,3.31-2.69,6-6,6ZM74.18,157.64h34.64v-24.27h-34.64v24.27Z"/>
      <rect x="77.73" y="121.36" width="27.55" height="22.36" rx="6" ry="6"/>
      <path d="M177,169.64h-46.64c-3.31,0-6-2.69-6-6v-36.27c0-3.31,2.69-6,6-6h46.64c3.31,0,6,2.69,6,6v36.27c0,3.31-2.69,6-6,6ZM136.36,157.64h34.64v-24.27h-34.64v24.27Z"/>
      <rect x="139.91" y="121.36" width="27.54" height="22.36" rx="6" ry="6"/>
      <path d="M79.64,111.27h-46.64c-3.31,0-6-2.69-6-6v-36.27c0-3.31,2.69-6,6-6h46.64c3.31,0,6,2.69,6,6v36.27c0,3.31-2.69,6-6,6ZM39,99.27h34.64v-24.27h-34.64v24.27Z"/>
      <rect x="42.54" y="63" width="27.55" height="22.36" rx="6" ry="6"/>
      <path d="M141.82,111.27h-46.64c-3.31,0-6-2.69-6-6v-36.27c0-3.31,2.69-6,6-6h46.64c3.31,0,6,2.69,6,6v36.27c0,3.31-2.69,6-6,6ZM101.18,99.27h34.64v-24.27h-34.64v24.27Z"/>
      <rect x="104.73" y="63" width="27.55" height="22.36" rx="6" ry="6"/>
      <path d="M114,48.27h-54c-3.31,0-6-2.69-6-6V6c0-3.31,2.69-6,6-6h54c3.31,0,6,2.69,6,6v36.27c0,3.31-2.69,6-6,6ZM66,36.27h42V12h-42v24.27Z"/>
      <rect x="72" width="30" height="22.36" rx="6" ry="6"/>
    </g>
  </g>
</svg>