<?xml version="1.0" encoding="UTF-8"?>
<svg id="Layer_2" data-name="Layer 2" xmlns="http://www.w3.org/2000/svg" viewBox="0 0 183 151.7">
  <g id="Isolation_Mode" data-name="Isolation Mode">
    <g>
      <path d="M75.95,151.7H6c-3.31,0-6-2.69-6-6v-54.41c0-3.31,2.69-6,6-6h69.95c3.31,0,6,2.69,6,6v54.41c0,3.31-2.69,6-6,6ZM12,139.7h57.95v-42.41H12v42.41Z"/>
      <path d="M52.64,112.84h-23.32c-3.31,0-6-2.69-6-6v-15.55c0-3.31,2.69-6,6-6h23.32c3.31,0,6,2.69,6,6v15.55c0,3.31-2.69,6-6,6ZM35.32,100.84h11.32v-3.55h-11.32v3.55Z"/>
      <path d="M177,151.7h-69.95c-3.31,0-6-2.69-6-6v-54.41c0-3.31,2.69-6,6-6h69.95c3.31,0,6,2.69,6,6v54.41c0,3.31-2.69,6-6,6ZM113.05,139.7h57.95v-42.41h-57.95v42.41Z"/>
      <path d="M153.68,112.84h-23.32c-3.31,0-6-2.69-6-6v-15.55c0-3.31,2.69-6,6-6h23.32c3.31,0,6,2.69,6,6v15.55c0,3.31-2.69,6-6,6ZM136.36,100.84h11.32v-3.55h-11.32v3.55Z"/>
      <path d="M123,66.41H53.05c-3.31,0-6-2.69-6-6V6c0-3.31,2.69-6,6-6h69.95c3.31,0,6,2.69,6,6v54.41c0,3.31-2.69,6-6,6ZM59.05,54.41h57.95V12h-57.95v42.41Z"/>
      <path d="M99.68,27.55h-23.32c-3.31,0-6-2.69-6-6V6c0-3.31,2.69-6,6-6h23.32c3.31,0,6,2.69,6,6v15.55c0,3.31-2.69,6-6,6ZM82.36,15.55h11.32v-3.55h-11.32v3.55Z"/>
    </g>
  </g>
</svg>