<?xml version="1.0" encoding="UTF-8"?>
<svg id="Layer_2" data-name="Layer 2" xmlns="http://www.w3.org/2000/svg" viewBox="0 0 192 102.07">
  <g id="Designs">
    <g>
      <path d="M170.57,102.07h-29.19c-11.82,0-21.43-9.61-21.43-21.43v-38.62h-24.02c-3.31,0-6-2.69-6-6V6c0-3.31,2.69-6,6-6h77.46c10.26,0,18.61,8.35,18.61,18.61v62.04c0,11.82-9.61,21.43-21.43,21.43ZM101.93,30.02h24.02c3.31,0,6,2.69,6,6v44.62c0,5.2,4.23,9.43,9.43,9.43h29.19c5.2,0,9.43-4.23,9.43-9.43V18.61c0-3.64-2.96-6.61-6.61-6.61h-71.46v18.02Z"/>
      <path d="M95.93,32.3h-31.71c-3.31,0-6-2.69-6-6v-10.59c0-3.31,2.69-6,6-6h31.71c3.31,0,6,2.69,6,6,0,2.29-1.28,4.28-3.17,5.29,1.89,1.01,3.17,3,3.17,5.29,0,3.31-2.69,6-6,6Z"/>
      <path d="M64.22,27.93H6c-3.31,0-6-2.69-6-6s2.69-6,6-6h58.22c3.31,0,6,2.69,6,6s-2.69,6-6,6Z"/>
      <path d="M164.78,86.15c-3.31,0-6-2.69-6-6v-36.34h-9.88c-3.31,0-6-2.69-6-6s2.69-6,6-6h15.88c3.31,0,6,2.69,6,6v42.34c0,3.31-2.69,6-6,6Z"/>
    </g>
  </g>
</svg>