<?xml version="1.0" encoding="UTF-8"?>
<svg id="Layer_2" data-name="Layer 2" xmlns="http://www.w3.org/2000/svg" viewBox="0 0 192 160.7">
  <g id="Isolation_Mode" data-name="Isolation Mode">
    <g>
      <path d="M68.61,90.26c-3.31,0-6-2.69-6-6V19.41c0-4.08-3.32-7.41-7.41-7.41h-20.14c-4.08,0-7.41,3.32-7.41,7.41v64.85c0,3.31-2.69,6-6,6s-6-2.69-6-6V19.41C15.65,8.71,24.36,0,35.06,0h20.14c10.7,0,19.41,8.71,19.41,19.41v64.85c0,3.31-2.69,6-6,6Z"/>
      <path d="M53.19,160.7h-16.12c-11.81,0-21.42-9.61-21.42-21.42v-15.89c0-3.31,2.69-6,6-6s6,2.69,6,6v15.89c0,5.19,4.22,9.42,9.42,9.42h16.12c5.19,0,9.42-4.22,9.42-9.42v-15.89c0-3.31,2.69-6,6-6s6,2.69,6,6v15.89c0,11.81-9.61,21.42-21.42,21.42Z"/>
      <path d="M73.82,129.39H16.44c-9.07,0-16.44-7.38-16.44-16.44v-18.25c0-9.07,7.38-16.44,16.44-16.44h57.38c9.07,0,16.44,7.38,16.44,16.44v18.25c0,9.07-7.38,16.44-16.44,16.44ZM16.44,90.26c-2.45,0-4.44,1.99-4.44,4.44v18.25c0,2.45,1.99,4.44,4.44,4.44h57.38c2.45,0,4.44-1.99,4.44-4.44v-18.25c0-2.45-1.99-4.44-4.44-4.44H16.44Z"/>
      <path d="M170.35,90.26c-3.31,0-6-2.69-6-6V19.41c0-4.08-3.32-7.41-7.41-7.41h-20.14c-4.08,0-7.41,3.32-7.41,7.41v64.85c0,3.31-2.69,6-6,6s-6-2.69-6-6V19.41c0-10.7,8.71-19.41,19.41-19.41h20.14c10.7,0,19.41,8.71,19.41,19.41v64.85c0,3.31-2.69,6-6,6Z"/>
      <path d="M154.93,160.7h-16.12c-11.81,0-21.42-9.61-21.42-21.42v-15.89c0-3.31,2.69-6,6-6s6,2.69,6,6v15.89c0,5.19,4.22,9.42,9.42,9.42h16.12c5.19,0,9.42-4.22,9.42-9.42v-15.89c0-3.31,2.69-6,6-6s6,2.69,6,6v15.89c0,11.81-9.61,21.42-21.42,21.42Z"/>
      <path d="M175.56,129.39h-57.38c-9.07,0-16.44-7.38-16.44-16.44v-18.25c0-9.07,7.38-16.44,16.44-16.44h57.38c9.07,0,16.44,7.38,16.44,16.44v18.25c0,9.07-7.38,16.44-16.44,16.44ZM118.18,90.26c-2.45,0-4.44,1.99-4.44,4.44v18.25c0,2.45,1.99,4.44,4.44,4.44h57.38c2.45,0,4.44-1.99,4.44-4.44v-18.25c0-2.45-1.99-4.44-4.44-4.44h-57.38Z"/>
    </g>
  </g>
</svg>