<?xml version="1.0" encoding="iso-8859-1"?>
<!-- Generator: Adobe Illustrator 30.1.0, SVG Export Plug-In . SVG Version: 9.03 Build 0)  -->
<svg version="1.1" baseProfile="basic" id="Layer_1"
	 xmlns="http://www.w3.org/2000/svg" xmlns:xlink="http://www.w3.org/1999/xlink" x="0px" y="0px" viewBox="0 0 50.624 50.624"
	 xml:space="preserve">
<g>
	<path d="M38.299,46.113L38.299,46.113c-7.82,5.599-18.153,5.599-25.973,0v0C6.12,41.67,2.413,34.337,2.413,26.503v0
		c0-9.744,8.485-17.111,17.707-15.374l2.182,0.411c1.99,0.375,4.029,0.375,6.019,0l2.182-0.411
		c9.222-1.737,17.707,5.63,17.707,15.374v0C48.211,34.337,44.504,41.67,38.299,46.113z"/>
	<path d="M10.263,6.888l0.455-0.02c2.799-0.125,5.562,0.527,8.085,1.868c1.186,0.631,2.133,1.673,2.507,2.963
		c0.052,0.18,0.102,0.304,0.142,0.313l1.191,0.266c0.889,0.198,1.798,0.299,2.702,0.299c0.904,0,1.813-0.101,2.702-0.299l0,0
		c0.433-1.338,1.347-2.469,2.559-3.183c2.69-1.582,5.683-2.363,8.718-2.227l0.456,0.02c0.115,0.005,0.153-0.181,0.048-0.238
		l-1.913-1.045c-3.815-2.083-8.294-1.221-11.359,2.123c-0.009-2.033,0.215-4.068,0.693-6.059c0.042-0.175-0.04-0.355-0.187-0.408
		l-1.326-0.47l-1.312-0.465c-0.152-0.054-0.316,0.051-0.36,0.232c-0.547,2.267-0.812,4.584-0.824,6.9
		c-3.056-3.125-7.402-3.88-11.115-1.853L10.214,6.65C10.11,6.707,10.147,6.893,10.263,6.888z"/>
</g>
</svg>
