<?xml version="1.0" encoding="UTF-8"?>
<svg id="Layer_2" data-name="Layer 2" xmlns="http://www.w3.org/2000/svg" viewBox="0 0 47.41 47.41">
  <g id="Icon_Set" data-name="Icon Set">
    <g>
      <g>
        <path d="M10.5,47.41H.89C.4,47.41,0,47.02,0,46.53v-9.61c0-.49.4-.89.89-.89h9.61c.49,0,.89.4.89.89v9.61c0,.49-.4.89-.89.89ZM1.77,45.64h7.83v-7.83H1.77v7.83Z"/>
        <path d="M10.49,37.81H.89c-.35,0-.67-.21-.81-.53-.14-.32-.08-.7.16-.96l6.85-7.47c.33-.36.89-.39,1.25-.05.36.33.39.89.05,1.25l-5.48,5.98h7.2L36.27,7.49c.33-.36.89-.39,1.25-.05.36.33.39.89.05,1.25l-26.43,28.83c-.17.18-.41.29-.65.29Z"/>
      </g>
      <g>
        <path d="M20.1,47.41h-9.61c-.49,0-.89-.4-.89-.89s.4-.89.89-.89h8.72v-7.84c-.45-.04-.8-.42-.8-.88,0-.49.4-.89.89-.89h.8c.49,0,.89.4.89.89v9.61c0,.49-.4.89-.89.89Z"/>
        <path d="M20.1,37.81h-9.61c-.35,0-.67-.21-.81-.53-.14-.32-.08-.7.16-.96L36.26,7.49c.17-.18.41-.29.65-.29h9.61c.35,0,.67.21.81.53.14.32.08.7-.16.96l-26.42,28.83c-.17.18-.41.29-.65.29ZM12.51,36.03h7.2l24.8-27.05h-7.2l-24.8,27.05Z"/>
        <path d="M20.1,47.41c-.21,0-.43-.08-.6-.23-.36-.33-.39-.89-.05-1.25l26.19-28.57v-9.26c0-.49.4-.89.89-.89s.89.4.89.89v9.61c0,.22-.08.44-.23.6l-26.42,28.83c-.18.19-.41.29-.65.29Z"/>
      </g>
      <g>
        <path d="M14.04,27h-6.31c-.49,0-.89-.4-.89-.89v-6.31c0-.49.4-.89.89-.89h6.31c.49,0,.89.4.89.89v6.31c0,.49-.4.89-.89.89ZM8.62,25.23h4.53v-4.53h-4.53v4.53Z"/>
        <path d="M14.04,20.69h-6.31c-.35,0-.67-.21-.81-.53-.14-.32-.08-.7.16-.96L24.42.29c.17-.18.41-.29.65-.29h6.31c.35,0,.67.21.81.53.14.32.08.7-.16.96L14.69,20.41c-.17.18-.41.29-.65.29ZM9.75,18.92h3.9L29.37,1.77h-3.9l-15.72,17.14Z"/>
        <path d="M14.04,27c-.21,0-.43-.08-.6-.23-.36-.33-.39-.89-.05-1.25L30.5,6.85V.89c0-.49.4-.89.89-.89s.89.4.89.89v6.31c0,.22-.08.44-.23.6L14.69,26.71c-.18.19-.41.29-.65.29Z"/>
      </g>
    </g>
  </g>
</svg>