<?xml version="1.0" encoding="UTF-8"?>
<svg id="Layer_2" data-name="Layer 2" xmlns="http://www.w3.org/2000/svg" viewBox="0 0 47.41 47.41">
  <g id="Icon_Set" data-name="Icon Set">
    <g>
      <g>
        <path d="M44.79,30.56H14.56c-1.45,0-2.62-1.18-2.62-2.62v-8.8c0-.49.4-.89.89-.89h31.97c1.45,0,2.62,1.18,2.62,2.62v7.06c0,1.45-1.18,2.62-2.62,2.62ZM13.71,20.03v7.91c0,.47.38.85.85.85h30.23c.47,0,.85-.38.85-.85v-7.06c0-.47-.38-.85-.85-.85H13.71Z"/>
        <path d="M12.82,26.35h-5.62c-3.97,0-7.21-3.23-7.21-7.21,0-.49.4-.89.89-.89h11.94c.49,0,.89.4.89.89s-.4.89-.89.89H1.85c.42,2.57,2.67,4.54,5.36,4.54h5.62c.49,0,.89.4.89.89s-.4.89-.89.89Z"/>
        <g>
          <path d="M41.26,41.1h-23.17c-.29,0-.55-.14-.72-.37-.17-.23-.21-.53-.12-.8l2.11-6.32c.15-.46.66-.72,1.12-.56.46.15.72.66.56,1.12l-1.72,5.15h20.71l-1.72-5.15c-.15-.47.1-.97.56-1.12.46-.16.97.1,1.12.56l2.11,6.32c.09.27.04.57-.12.8-.17.23-.43.37-.72.37Z"/>
          <path d="M44.13,47.41H15.22c-1.23,0-2.23-1-2.23-2.23v-3.64c0-1.23,1-2.23,2.23-2.23h28.92c1.23,0,2.23,1,2.23,2.23v3.64c0,1.23-1,2.23-2.23,2.23ZM15.22,41.1c-.25,0-.45.2-.45.45v3.64c0,.25.2.45.45.45h28.92c.25,0,.45-.2.45-.45v-3.64c0-.25-.2-.45-.45-.45H15.22Z"/>
        </g>
      </g>
      <path d="M21.78,15.47h-5.37c-.9,0-1.63-.73-1.63-1.63V1.63c0-.9.73-1.63,1.63-1.63h5.37c.9,0,1.63.73,1.63,1.63v12.21c0,.9-.73,1.63-1.63,1.63ZM16.56,13.69h5.07V1.77h-5.07v11.92Z"/>
      <path d="M45.34,10.9h-22.82c-.49,0-.89-.4-.89-.89v-4.56c0-.49.4-.89.89-.89h22.82c1.15,0,2.08.93,2.08,2.08v2.18c0,1.15-.93,2.08-2.08,2.08ZM23.4,9.13h21.93c.17,0,.3-.14.3-.3v-2.18c0-.17-.14-.3-.3-.3h-21.93v2.79Z"/>
    </g>
  </g>
</svg>