<?xml version="1.0" encoding="UTF-8"?>
<svg id="Layer_2" data-name="Layer 2" xmlns="http://www.w3.org/2000/svg" viewBox="0 0 47.41 45.13">
  <g id="Icon_Set" data-name="Icon Set">
    <g>
      <path d="M46.53,45.13h-15.97c-.49,0-.89-.4-.89-.89v-13.69c0-.32.17-.61.45-.77l15.97-9.13c.27-.16.61-.16.89,0,.27.16.44.45.44.77v22.82c0,.49-.4.89-.89.89ZM31.44,43.36h14.2v-20.4l-14.2,8.11v12.29Z"/>
      <g>
        <path d="M10.98,34.18c-.67,0-1.29-.26-1.76-.73L.73,24.96c-.47-.47-.73-1.1-.73-1.76s.26-1.29.73-1.76L14.6,7.57c.47-.47,1.1-.73,1.76-.73s1.29.26,1.76.73l13.21,13.21c.25.25.33.64.19.97-.14.33-.46.55-.82.55h-6.8l-11.16,11.16c-.47.47-1.1.73-1.76.73ZM15.85,8.83L1.98,22.7c-.28.28-.28.73,0,1.01l8.49,8.49c.28.28.73.28,1.01,0l11.42-11.42c.17-.17.39-.26.63-.26h5.03l-11.7-11.69c-.28-.28-.73-.28-1.01,0h0Z"/>
        <path d="M17.17,21.86c-1.1,0-2.21-.42-3.05-1.26-1.68-1.68-1.68-4.42,0-6.1.81-.81,1.9-1.26,3.05-1.26s2.23.45,3.05,1.26c1.68,1.68,1.68,4.42,0,6.1-.84.84-1.94,1.26-3.05,1.26ZM17.17,15.02c-.68,0-1.31.26-1.79.74-.99.99-.99,2.6,0,3.59.99.99,2.6.99,3.59,0,.99-.99.99-2.6,0-3.59-.48-.48-1.12-.74-1.79-.74Z"/>
        <path d="M14.75,16.02c-.23,0-.45-.09-.63-.26L4.44,6.08c-.35-.35-.35-.91,0-1.26.35-.35.91-.35,1.26,0l9.68,9.68c.35.35.35.91,0,1.26-.17.17-.4.26-.63.26Z"/>
      </g>
      <path d="M33.71,17.75c-.13,0-.27-.03-.4-.09-.44-.22-.62-.75-.4-1.19l1.14-2.28c.2-.4.23-.85.09-1.27-.14-.42-.44-.76-.83-.96-.82-.41-1.43-1.12-1.72-1.99-.29-.87-.22-1.8.19-2.63l1.14-2.28c.22-.44.75-.62,1.19-.4.44.22.62.75.4,1.19l-1.14,2.28c-.2.4-.23.85-.09,1.27.14.42.44.76.83.96.82.41,1.43,1.12,1.72,1.99.29.87.22,1.8-.19,2.63l-1.14,2.28c-.16.31-.47.49-.79.49Z"/>
      <path d="M41.09,13.19c-.13,0-.27-.03-.4-.09-.44-.22-.62-.75-.4-1.19l1.14-2.28c.2-.4.23-.85.09-1.27-.14-.42-.44-.76-.83-.96-.82-.41-1.43-1.12-1.72-1.99-.29-.87-.22-1.8.19-2.63l1.14-2.28c.22-.44.75-.62,1.19-.4.44.22.62.75.4,1.19l-1.14,2.28c-.2.4-.23.85-.09,1.27.14.42.44.76.83.96.82.41,1.43,1.12,1.72,1.99.29.87.22,1.8-.19,2.63l-1.14,2.28c-.16.31-.47.49-.79.49Z"/>
    </g>
  </g>
</svg>