<?xml version="1.0" encoding="UTF-8"?>
<svg id="Layer_2" data-name="Layer 2" xmlns="http://www.w3.org/2000/svg" viewBox="0 0 47.41 47.41">
  <g id="Icon_Set" data-name="Icon Set">
    <g>
      <path d="M14.11,26.88h-2.99c-.95,0-1.72-.77-1.72-1.72v-1.08c-1.63-.49-3.15-1.37-4.4-2.54l-.94.54c-.4.23-.86.29-1.3.17-.44-.12-.81-.4-1.04-.8l-1.5-2.59c-.47-.82-.19-1.87.63-2.34l.94-.54c-.19-.83-.29-1.68-.29-2.54s.1-1.71.29-2.54l-.94-.54c-.82-.47-1.1-1.52-.63-2.34l1.5-2.59c.23-.4.6-.68,1.04-.8.44-.12.9-.06,1.3.17l.94.54c1.25-1.17,2.77-2.05,4.4-2.54v-1.08c0-.95.77-1.72,1.72-1.72h2.99c.95,0,1.72.77,1.72,1.72v1.08c1.63.49,3.15,1.37,4.4,2.54l.94-.54c.82-.47,1.87-.19,2.34.63l1.5,2.59c.47.82.19,1.87-.63,2.34l-.94.54c.19.83.29,1.68.29,2.54s-.1,1.71-.29,2.54l.94.54c.82.47,1.1,1.52.63,2.34l-1.5,2.59c-.47.82-1.52,1.1-2.34.63l-.94-.54c-1.25,1.17-2.77,2.05-4.4,2.54v1.08c0,.95-.77,1.72-1.72,1.72ZM11.18,25.1h2.87v-1.07c0-.75.5-1.43,1.23-1.64,1.39-.41,2.69-1.17,3.76-2.17.55-.52,1.38-.62,2.04-.24l.93.53,1.44-2.49-.92-.53c-.66-.38-.99-1.14-.81-1.88.17-.71.25-1.44.25-2.17s-.09-1.46-.25-2.17c-.18-.74.15-1.5.81-1.88l.92-.53-1.44-2.49-.93.53c-.65.38-1.49.28-2.04-.24-1.06-1.01-2.36-1.76-3.76-2.17-.72-.21-1.23-.89-1.23-1.64v-1.07h-2.87v1.07c0,.75-.5,1.43-1.23,1.64-1.4.41-2.69,1.17-3.76,2.17-.55.52-1.38.62-2.04.24l-.93-.53-1.44,2.49.92.53c.65.38.98,1.15.81,1.88-.17.71-.25,1.44-.25,2.17s.09,1.46.25,2.17c.17.73-.16,1.51-.81,1.88l-.92.53,1.44,2.49.93-.53c.65-.38,1.49-.28,2.04.24,1.06,1.01,2.36,1.76,3.76,2.17.72.21,1.23.89,1.23,1.64v1.07ZM23.49,18.06h0,0Z"/>
      <path d="M12.62,19.21c-3.18,0-5.77-2.59-5.77-5.77s2.59-5.77,5.77-5.77,5.77,2.59,5.77,5.77-2.59,5.77-5.77,5.77ZM12.62,9.44c-2.2,0-3.99,1.79-3.99,3.99s1.79,3.99,3.99,3.99,3.99-1.79,3.99-3.99-1.79-3.99-3.99-3.99Z"/>
      <path d="M38.56,37.28h-2.33c-.84,0-1.53-.69-1.53-1.53v-.7c-1.2-.38-2.32-1.03-3.25-1.88l-.6.35c-.73.42-1.67.17-2.09-.56l-1.16-2.02c-.42-.73-.17-1.67.56-2.09l.6-.35c-.13-.61-.2-1.24-.2-1.88s.07-1.26.2-1.88l-.6-.35c-.73-.42-.98-1.36-.56-2.09l1.16-2.02c.42-.73,1.36-.98,2.09-.56l.61.35c.94-.85,2.05-1.5,3.25-1.88v-.7c0-.84.69-1.53,1.53-1.53h2.33c.84,0,1.53.69,1.53,1.53v.7c1.2.38,2.32,1.03,3.25,1.88l.6-.35c.73-.42,1.67-.17,2.09.56l1.16,2.02c.42.73.17,1.67-.56,2.09l-.6.35c.13.61.2,1.25.2,1.88s-.07,1.26-.2,1.88l.6.35c.73.42.98,1.36.56,2.09l-1.16,2.02c-.42.73-1.36.98-2.09.56l-.61-.35c-.94.85-2.05,1.5-3.25,1.88v.7c0,.84-.69,1.53-1.53,1.53ZM36.48,35.51h1.84v-.63c0-.67.45-1.28,1.09-1.47,1.06-.31,2.04-.88,2.85-1.65.49-.46,1.24-.55,1.82-.21l.55.32.92-1.6-.55-.32c-.59-.34-.88-1.02-.72-1.68.13-.54.19-1.09.19-1.64s-.06-1.11-.19-1.64c-.16-.67.13-1.34.72-1.68l.55-.32-.92-1.6-.55.32c-.58.34-1.33.25-1.82-.21-.81-.76-1.79-1.33-2.85-1.65-.64-.19-1.09-.79-1.09-1.47v-.63h-1.84v.63c0,.67-.45,1.28-1.09,1.47-1.06.31-2.04.88-2.85,1.65-.49.46-1.24.55-1.82.21l-.55-.32-.92,1.6.55.32c.59.34.88,1.02.72,1.68-.13.54-.19,1.09-.19,1.64s.06,1.11.19,1.64c.16.67-.13,1.34-.72,1.68l-.55.32.92,1.6.55-.32c.58-.34,1.33-.25,1.82.21.81.76,1.79,1.33,2.85,1.65.64.19,1.09.79,1.09,1.47v.63ZM45.76,30.39h0,0Z"/>
      <path d="M37.4,31.32c-2.58,0-4.69-2.1-4.69-4.69s2.1-4.69,4.69-4.69,4.69,2.1,4.69,4.69-2.1,4.69-4.69,4.69ZM37.4,23.72c-1.61,0-2.91,1.31-2.91,2.91s1.31,2.91,2.91,2.91,2.91-1.31,2.91-2.91-1.31-2.91-2.91-2.91Z"/>
      <path d="M10.87,47.41c-3.79,0-6.88-3.09-6.88-6.88s3.09-6.88,6.88-6.88,6.88,3.09,6.88,6.88-3.09,6.88-6.88,6.88ZM10.87,35.43c-2.81,0-5.1,2.29-5.1,5.1s2.29,5.1,5.1,5.1,5.1-2.29,5.1-5.1-2.29-5.1-5.1-5.1Z"/>
      <path d="M10.87,43.71c-1.75,0-3.17-1.42-3.17-3.17s1.42-3.17,3.17-3.17,3.17,1.42,3.17,3.17-1.42,3.17-3.17,3.17ZM10.87,39.14c-.77,0-1.39.63-1.39,1.39s.63,1.39,1.39,1.39,1.39-.63,1.39-1.39-.63-1.39-1.39-1.39Z"/>
      <path d="M7.73,36.32c-.49,0-.89-.4-.89-.89v-13.01c0-.49.4-.89.89-.89s.89.4.89.89v13.01c0,.49-.4.89-.89.89Z"/>
      <path d="M16.85,41.7c-.32,0-.64-.18-.79-.49-.22-.44-.05-.97.39-1.19l15.65-7.91c.44-.22.97-.05,1.19.39.22.44.05.97-.39,1.19l-15.65,7.91c-.13.06-.26.1-.4.1Z"/>
      <path d="M33.9,20.37c-.15,0-.29-.04-.43-.11l-11.06-6.14c-.43-.24-.58-.78-.34-1.21.24-.43.78-.58,1.21-.34l11.06,6.14c.43.24.58.78.34,1.21-.16.29-.46.46-.78.46Z"/>
    </g>
  </g>
</svg>